<svg width="54" height="53" viewBox="0 0 54 53" fill="none" xmlns="http://www.w3.org/2000/svg">
<path d="M34 15H4C2.34315 15 1 16.3431 1 18V37C1 38.6569 2.34315 40 4 40H34C35.6569 40 37 38.6569 37 37V18C37 16.3431 35.6569 15 34 15Z" fill="white" stroke="#006BFF" stroke-width="2"/>
<path d="M16 14H13V17H16V14Z" fill="white" stroke="white"/>
<path d="M50 0H20C17.7909 0 16 1.79086 16 4V23C16 25.2091 17.7909 27 20 27H50C52.2091 27 54 25.2091 54 23V4C54 1.79086 52.2091 0 50 0Z" fill="#008940"/>
<path d="M26.3289 16.801C26.1567 16.801 25.9359 16.7455 25.6599 16.5822L24.689 16.004C24.5883 15.9452 24.3935 15.9452 24.296 16.004L23.3219 16.5822C22.7471 16.9251 22.4094 16.788 22.2567 16.6769C22.1074 16.5658 21.8736 16.2817 22.0262 15.6284L22.2567 14.6256C22.2827 14.5211 22.2308 14.3415 22.1528 14.2631L21.3475 13.453C20.9448 13.048 20.9773 12.7018 21.0325 12.5319C21.0877 12.3621 21.2631 12.0616 21.8216 11.9668L22.8575 11.7937C22.9549 11.7774 23.0945 11.6729 23.1368 11.5847L23.7115 10.4317C23.9713 9.90578 24.3123 9.82739 24.4909 9.82739C24.6695 9.82739 25.0104 9.90578 25.2702 10.4317L25.8418 11.5814C25.8872 11.6696 26.0269 11.7741 26.1243 11.7905L27.1602 11.9636C27.7219 12.0583 27.8973 12.3588 27.9493 12.5286C28.0012 12.6985 28.0337 13.0447 27.6343 13.4498L26.8289 14.2631C26.751 14.3415 26.7023 14.5179 26.725 14.6256L26.9556 15.6284C27.105 16.2817 26.8744 16.5658 26.725 16.6769C26.6438 16.7357 26.5139 16.801 26.3289 16.801Z" fill="white"/>
<path d="M47.3484 16.8015C47.1763 16.8015 46.9554 16.746 46.6794 16.5827L45.7085 16.0045C45.6078 15.9457 45.413 15.9457 45.3156 16.0045L44.3414 16.5827C43.7666 16.9256 43.4289 16.7884 43.2763 16.6774C43.1269 16.5663 42.8931 16.2822 43.0457 15.6289L43.2763 14.6261C43.3022 14.5216 43.2503 14.342 43.1723 14.2636L42.367 13.4535C41.9644 13.0485 41.9968 12.7023 42.052 12.5324C42.1072 12.3626 42.2826 12.0621 42.8411 11.9673L43.877 11.7942C43.9744 11.7779 44.1141 11.6734 44.1563 11.5852L44.7311 10.4322C44.9908 9.90627 45.3318 9.82788 45.5104 9.82788C45.689 9.82788 46.03 9.90627 46.2898 10.4322L46.8613 11.5819C46.9067 11.6701 47.0464 11.7746 47.1438 11.7909L48.1797 11.9641C48.7415 12.0588 48.9168 12.3593 48.9688 12.5291C49.0207 12.699 49.0532 13.0452 48.6538 13.4503L47.8485 14.2636C47.7705 14.342 47.7218 14.5183 47.7445 14.6261L47.9751 15.6289C48.1245 16.2822 47.8939 16.5663 47.7445 16.6774C47.6634 16.7362 47.5335 16.8015 47.3484 16.8015Z" fill="white"/>
<path d="M37.8138 18.0453C37.5658 18.0453 37.2478 17.9654 36.8502 17.7301L35.4515 16.8973C35.3065 16.8126 35.0259 16.8126 34.8856 16.8973L33.4823 17.7301C32.6543 18.2241 32.1678 18.0265 31.948 17.8665C31.7328 17.7066 31.396 17.2972 31.6159 16.3562L31.948 14.9118C31.9854 14.7612 31.9106 14.5024 31.7983 14.3895L30.6382 13.2226C30.0582 12.6392 30.105 12.1405 30.1845 11.8958C30.264 11.6511 30.5166 11.2183 31.3212 11.0818L32.8134 10.8325C32.9537 10.8089 33.1548 10.6584 33.2156 10.5313L34.0436 8.87044C34.4178 8.11292 34.9089 8 35.1662 8C35.4235 8 35.9146 8.11292 36.2888 8.87044L37.1121 10.5266C37.1776 10.6537 37.3787 10.8042 37.5191 10.8277L39.0112 11.0771C39.8205 11.2136 40.0731 11.6464 40.1479 11.8911C40.2228 12.1358 40.2695 12.6345 39.6942 13.2179L38.5341 14.3895C38.4219 14.5024 38.3517 14.7565 38.3844 14.9118L38.7166 16.3562C38.9317 17.2972 38.5996 17.7066 38.3844 17.8665C38.2675 17.9512 38.0804 18.0453 37.8138 18.0453Z" fill="white"/>
<path d="M48 36L38 26H48V36Z" fill="#008940" stroke="#008940"/>
<path d="M8 50L18 40H8V50Z" fill="white" stroke="#006BFF" stroke-width="2"/>
<path d="M9.5 37.5H17.3063L16.1318 41.0234L9.5 41.4656V37.5Z" fill="white" stroke="white"/>
<path d="M19 38.5L13 45" stroke="#006BFF" stroke-width="2"/>
<path d="M19.5 35.5H14.5V38.5H19.5V35.5Z" fill="white" stroke="white"/>
<mask id="mask0_520_97" style="mask-type:luminance" maskUnits="userSpaceOnUse" x="35" y="27" width="3" height="4">
<path fill-rule="evenodd" clip-rule="evenodd" d="M38 28.6879V30.3345L35.5596 29.0699L36.2319 27.7717L38 28.6879Z" fill="white"/>
</mask>
<g mask="url(#mask0_520_97)">
<path d="M38.5678 28.6149H39.277V27.917L38.8125 27.6763L38.5678 28.6149ZM38.5678 30.2615L38.3232 31.2001L39.277 31.6944V30.2615H38.5678ZM36.1274 28.9969L35.5547 28.4071L35 29.4781L35.8827 29.9355L36.1274 28.9969ZM36.7997 27.6987L37.0444 26.7601L36.5424 26.5L36.227 27.109L36.7997 27.6987ZM37.8586 28.6149V30.2615H39.277V28.6149H37.8586ZM38.5684 29.427L37.4702 28.7427L36.372 28.0583L35.8827 29.9355L38.3232 31.2001L38.5684 29.427ZM36.7002 29.5867L37.3725 28.2885L37.0684 27.427L36.227 27.109L35.5547 28.4071L36.7002 29.5867ZM36.5551 28.6374L38.3232 29.5536L38.8125 27.6763L37.0444 26.7601L37.0684 27.427L36.5551 28.6374Z" fill="white"/>
</g>
<path d="M36 27H33V30H36V27Z" fill="white"/>
<rect x="36" y="27" width="2" height="2" fill="white"/>
</svg>
