<svg width="216" height="200" viewBox="0 0 216 200" fill="none" xmlns="http://www.w3.org/2000/svg">
<mask id="mask0_179_195" style="mask-type:alpha" maskUnits="userSpaceOnUse" x="9" y="164" width="19" height="20">
<rect x="9.26123" y="164.573" width="18.5144" height="18.5144" fill="#D9D9D9"/>
</mask>
<g mask="url(#mask0_179_195)">
<path d="M18.5184 183.087L15.6255 176.723L9.26123 173.83L15.6255 170.937L18.5184 164.573L21.4113 170.937L27.7756 173.83L21.4113 176.723L18.5184 183.087Z" fill="white"/>
</g>
<mask id="mask1_179_195" style="mask-type:alpha" maskUnits="userSpaceOnUse" x="158" y="183" width="17" height="17">
<rect x="158" y="183" width="17" height="17" fill="#D9D9D9"/>
</mask>
<g mask="url(#mask1_179_195)">
<path d="M166.5 200L163.844 194.156L158 191.5L163.844 188.844L166.5 183L169.156 188.844L175 191.5L169.156 194.156L166.5 200Z" fill="white"/>
</g>
<mask id="mask2_179_195" style="mask-type:alpha" maskUnits="userSpaceOnUse" x="150" y="0" width="16" height="16">
<rect x="150" width="16" height="16" fill="#D9D9D9"/>
</mask>
<g mask="url(#mask2_179_195)">
<path d="M158 16L155.5 10.5L150 8L155.5 5.5L158 0L160.5 5.5L166 8L160.5 10.5L158 16Z" fill="white"/>
</g>
<mask id="mask3_179_195" style="mask-type:alpha" maskUnits="userSpaceOnUse" x="186" y="90" width="30" height="30">
<rect x="186.686" y="90.5142" width="29.3144" height="29.3144" fill="#D9D9D9"/>
</mask>
<g mask="url(#mask3_179_195)">
<path d="M201.343 119.829L196.762 109.752L186.686 105.171L196.762 100.591L201.343 90.5142L205.923 100.591L216 105.171L205.923 109.752L201.343 119.829Z" fill="white"/>
</g>
<mask id="mask4_179_195" style="mask-type:alpha" maskUnits="userSpaceOnUse" x="0" y="36" width="16" height="16">
<rect y="36.5132" width="15.4286" height="15.4286" fill="#D9D9D9"/>
</mask>
<g mask="url(#mask4_179_195)">
<path d="M7.71432 51.9418L5.3036 46.6382L0 44.2275L5.3036 41.8168L7.71432 36.5132L10.125 41.8168L15.4286 44.2275L10.125 46.6382L7.71432 51.9418Z" fill="white"/>
</g>
<mask id="mask5_179_195" style="mask-type:alpha" maskUnits="userSpaceOnUse" x="21" y="25" width="158" height="159">
<rect x="21.603" y="25.7155" width="157.372" height="157.372" fill="#D9D9D9"/>
</mask>
<g mask="url(#mask5_179_195)">
<path d="M90.9757 132.293L135.06 88.2087L128.15 81.2986L90.9757 118.473L72.2877 99.7847L65.3776 106.695L90.9757 132.293ZM100.293 166.693C91.6771 166.693 83.5787 165.058 75.9978 161.788C68.4167 158.518 61.8222 154.081 56.2144 148.475C50.6065 142.87 46.1669 136.278 42.8957 128.701C39.6244 121.123 37.9888 113.026 37.9888 104.411C37.9888 95.7951 39.6237 87.6968 42.8935 80.1158C46.1634 72.5347 50.6009 65.9403 56.2062 60.3325C61.8116 54.7246 68.4032 50.285 75.9809 47.0137C83.5585 43.7425 91.6551 42.1068 100.271 42.1068C108.886 42.1068 116.985 43.7417 124.566 47.0116C132.147 50.2814 138.741 54.719 144.349 60.3243C149.957 65.9297 154.397 72.5212 157.668 80.0989C160.939 87.6765 162.575 95.7731 162.575 104.389C162.575 113.005 160.94 121.103 157.67 128.684C154.4 136.265 149.963 142.859 144.357 148.467C138.752 154.075 132.16 158.515 124.583 161.786C117.005 165.057 108.908 166.693 100.293 166.693ZM100.282 156.857C114.926 156.857 127.33 151.775 137.494 141.612C147.657 131.448 152.739 119.044 152.739 104.4C152.739 89.7554 147.657 77.3515 137.494 67.1878C127.33 57.0242 114.926 51.9424 100.282 51.9424C85.6374 51.9424 73.2334 57.0242 63.0698 67.1878C52.9062 77.3515 47.8244 89.7554 47.8244 104.4C47.8244 119.044 52.9062 131.448 63.0698 141.612C73.2334 151.775 85.6374 156.857 100.282 156.857Z" fill="white"/>
</g>
</svg>
