<svg width="40" height="40" viewBox="0 0 40 40" fill="none" xmlns="http://www.w3.org/2000/svg">
<mask id="mask0_384_8" style="mask-type:alpha" maskUnits="userSpaceOnUse" x="0" y="0" width="40" height="40">
<rect width="40" height="40" rx="3" fill="#D9D9D9"/>
</mask>
<g mask="url(#mask0_384_8)">
<path d="M11.8814 38.1247C9.61068 39.4947 6.8095 37.4607 7.40942 34.8774L9.15542 27.359C9.40705 26.2755 9.03852 25.1417 8.19792 24.4133L2.35755 19.3519C0.354367 17.6159 1.4221 14.3252 4.06292 14.096L11.7787 13.4264C12.8855 13.3304 13.8487 12.6305 14.2819 11.6075L17.2817 4.52354C18.3151 2.08332 21.7734 2.08332 22.8067 4.52354L25.8066 11.6075C26.2398 12.6305 27.2029 13.3304 28.3097 13.4264L36.0255 14.096C38.6663 14.3252 39.7341 17.6159 37.7309 19.3519L31.8905 24.4133C31.0499 25.1417 30.6814 26.2755 30.933 27.359L32.679 34.8774C33.2789 37.4607 30.4777 39.4947 28.207 38.1247L21.594 34.1349C20.6408 33.5598 19.4476 33.5598 18.4944 34.1349L11.8814 38.1247Z" fill="#D7D7D7"/>
</g>
</svg>
