<svg width="150" height="75" viewBox="0 0 150 75" fill="none" xmlns="http://www.w3.org/2000/svg">
<rect width="150" height="75" fill="#008940"/>
<path fill-rule="evenodd" clip-rule="evenodd" d="M0 6.35385L29.5 29.5L58 43.5L78.5 44.5L103.5 39L124 26.5L150 7.55085V0H0V6.35385Z" fill="#133E79"/>
<line x1="75" x2="75" y2="75" stroke="white" stroke-width="4"/>
<path fill-rule="evenodd" clip-rule="evenodd" d="M0 10.3821V5.43616L8.17634 11.3826L13.6717 15.3792L13.6763 15.3826L29.6148 26.8383L33.5265 29.2831L36.9704 31.2511L43.394 34.7099L49.7621 37.6491L55.0858 39.585L58.885 40.5347L62.2656 41.0177L66.2345 41.5138L70.6108 42.0001H76H79.5V46.0001H76H70.5H70.3892L70.2791 45.9878L65.7791 45.4878L65.7655 45.4863L65.7519 45.4846L61.7519 44.9846L61.7345 44.9824L61.7172 44.98L58.2172 44.48L58.115 44.4654L58.0149 44.4403L54.0149 43.4403L53.9141 43.4152L53.8165 43.3796L48.3165 41.3796L48.2379 41.351L48.1619 41.316L41.6619 38.316L41.606 38.2902L41.5518 38.261L35.0518 34.761L35.0296 34.7491L35.0077 34.7365L31.5077 32.7365L31.4735 32.717L31.44 32.6961L27.44 30.1961L27.3852 30.1618L27.3327 30.1241L11.3327 18.6241L11.3236 18.6176L11.3237 18.6175L5.82366 14.6175L0 10.3821Z" fill="white"/>
<path fill-rule="evenodd" clip-rule="evenodd" d="M150 5.07251V10.0185L143.676 14.6175L138.176 18.6175L138.167 18.6241L122.167 30.1241L122.115 30.1618L122.06 30.196L118.06 32.696L118.027 32.717L117.992 32.7365L114.492 34.7365L114.47 34.749L114.448 34.761L107.948 38.261L107.894 38.2902L107.838 38.316L101.338 41.316L101.262 41.351L101.183 41.3796L95.6835 43.3796L95.5859 43.4151L95.4851 43.4403L91.4851 44.4403L91.385 44.4654L91.2828 44.4799L87.7828 44.9799L87.7655 44.9824L87.7481 44.9846L83.7481 45.4846L83.7345 45.4863L83.7209 45.4878L79.2209 45.9878L79.1108 46.0001H79H73.5H70.5V42.0001H73.5H78.8892L83.2655 41.5138L87.2344 41.0177L90.615 40.5347L94.4142 39.585L99.7379 37.6491L106.106 34.7099L112.53 31.2511L115.973 29.2831L119.885 26.8383L135.824 15.3826L135.828 15.3792L141.324 11.3826L150 5.07251Z" fill="white"/>
</svg>
