<svg width="54" height="53" viewBox="0 0 54 53" fill="none" xmlns="http://www.w3.org/2000/svg">
<rect x="1" y="15" width="36" height="25" rx="3" fill="white" stroke="#133E79" stroke-width="2"/>
<rect x="16" width="38" height="27" rx="4" fill="#008940"/>
<path d="M26.3289 16.801C26.1567 16.801 25.9359 16.7455 25.6599 16.5822L24.689 16.004C24.5883 15.9452 24.3935 15.9452 24.296 16.004L23.3219 16.5822C22.7471 16.9251 22.4094 16.788 22.2567 16.6769C22.1074 16.5658 21.8736 16.2817 22.0262 15.6284L22.2567 14.6256C22.2827 14.5211 22.2308 14.3415 22.1528 14.2631L21.3475 13.453C20.9448 13.048 20.9773 12.7018 21.0325 12.5319C21.0877 12.3621 21.2631 12.0616 21.8216 11.9668L22.8575 11.7937C22.9549 11.7774 23.0945 11.6729 23.1368 11.5847L23.7115 10.4317C23.9713 9.90578 24.3123 9.82739 24.4909 9.82739C24.6695 9.82739 25.0104 9.90578 25.2702 10.4317L25.8418 11.5814C25.8872 11.6696 26.0269 11.7741 26.1243 11.7905L27.1602 11.9636C27.7219 12.0583 27.8973 12.3588 27.9493 12.5286C28.0012 12.6985 28.0337 13.0447 27.6343 13.4498L26.8289 14.2631C26.751 14.3415 26.7023 14.5179 26.725 14.6256L26.9556 15.6284C27.105 16.2817 26.8744 16.5658 26.725 16.6769C26.6438 16.7357 26.5139 16.801 26.3289 16.801Z" fill="white"/>
<path d="M47.3489 16.8015C47.1768 16.8015 46.9559 16.746 46.6799 16.5827L45.709 16.0045C45.6083 15.9457 45.4135 15.9457 45.3161 16.0045L44.3419 16.5827C43.7671 16.9256 43.4294 16.7884 43.2768 16.6774C43.1274 16.5663 42.8936 16.2822 43.0462 15.6289L43.2768 14.6261C43.3027 14.5216 43.2508 14.342 43.1728 14.2636L42.3675 13.4535C41.9649 13.0485 41.9973 12.7023 42.0525 12.5324C42.1077 12.3626 42.2831 12.0621 42.8416 11.9673L43.8775 11.7942C43.9749 11.7779 44.1146 11.6734 44.1568 11.5852L44.7316 10.4322C44.9913 9.90627 45.3323 9.82788 45.5109 9.82788C45.6895 9.82788 46.0305 9.90627 46.2903 10.4322L46.8618 11.5819C46.9072 11.6701 47.0469 11.7746 47.1443 11.7909L48.1802 11.9641C48.742 12.0588 48.9173 12.3593 48.9693 12.5291C49.0212 12.699 49.0537 13.0452 48.6543 13.4503L47.849 14.2636C47.771 14.342 47.7223 14.5183 47.745 14.6261L47.9756 15.6289C48.125 16.2822 47.8944 16.5663 47.745 16.6774C47.6639 16.7362 47.534 16.8015 47.3489 16.8015Z" fill="white"/>
<path d="M37.8143 18.0453C37.5663 18.0453 37.2483 17.9654 36.8507 17.7301L35.452 16.8973C35.307 16.8126 35.0264 16.8126 34.8861 16.8973L33.4828 17.7301C32.6548 18.2241 32.1683 18.0265 31.9485 17.8665C31.7333 17.7066 31.3965 17.2972 31.6164 16.3562L31.9485 14.9118C31.9859 14.7612 31.9111 14.5024 31.7988 14.3895L30.6387 13.2226C30.0587 12.6392 30.1055 12.1405 30.185 11.8958C30.2645 11.6511 30.5171 11.2183 31.3217 11.0818L32.8139 10.8325C32.9542 10.8089 33.1553 10.6584 33.2161 10.5313L34.0441 8.87044C34.4183 8.11292 34.9094 8 35.1667 8C35.424 8 35.9151 8.11292 36.2893 8.87044L37.1126 10.5266C37.1781 10.6537 37.3792 10.8042 37.5196 10.8277L39.0117 11.0771C39.821 11.2136 40.0736 11.6464 40.1484 11.8911C40.2233 12.1358 40.27 12.6345 39.6947 13.2179L38.5346 14.3895C38.4224 14.5024 38.3522 14.7565 38.3849 14.9118L38.7171 16.3562C38.9322 17.2972 38.6001 17.7066 38.3849 17.8665C38.268 17.9512 38.0809 18.0453 37.8143 18.0453Z" fill="white"/>
<path d="M48 36L38 26H48V36Z" fill="#008940" stroke="#008940"/>
<path d="M8 50L18 40H8V50Z" fill="white" stroke="#133E79" stroke-width="2"/>
<path d="M9.5 37.5H17.3063L16.1318 41.0234L9.5 41.4656V37.5Z" fill="white" stroke="white"/>
<path d="M19 38.5L13 45" stroke="#133E79" stroke-width="2"/>
<rect x="14.5" y="35.5" width="5" height="3" fill="white" stroke="white"/>
<rect x="13.5" y="13.5" width="2" height="4" fill="white" stroke="white"/>
<path d="M35.5 27.5H38.1096L38.3596 28.5H35.5V27.5Z" fill="white" stroke="white"/>
<mask id="path-13-inside-1_114_268" fill="white">
<path fill-rule="evenodd" clip-rule="evenodd" d="M39.0002 28.6879V30.3345L35.5591 29.0699L36.5071 27.7717L39.0002 28.6879Z"/>
</mask>
<path fill-rule="evenodd" clip-rule="evenodd" d="M39.0002 28.6879V30.3345L35.5591 29.0699L36.5071 27.7717L39.0002 28.6879Z" fill="white"/>
<path d="M39.0002 28.6879H40.0002V27.99L39.3452 27.7493L39.0002 28.6879ZM39.0002 30.3345L38.6553 31.2731L40.0002 31.7674V30.3345H39.0002ZM35.5591 29.0699L34.7515 28.4801L33.9694 29.5511L35.2141 30.0085L35.5591 29.0699ZM36.5071 27.7717L36.8521 26.8331L36.1443 26.573L35.6995 27.182L36.5071 27.7717ZM38.0002 28.6879V30.3345H40.0002V28.6879H38.0002ZM39.3452 29.3959L35.904 28.1313L35.2141 30.0085L38.6553 31.2731L39.3452 29.3959ZM36.3667 29.6597L37.3147 28.3615L35.6995 27.182L34.7515 28.4801L36.3667 29.6597ZM36.1622 28.7104L38.6553 29.6266L39.3452 27.7493L36.8521 26.8331L36.1622 28.7104Z" fill="white" mask="url(#path-13-inside-1_114_268)"/>
<rect x="33" y="27" width="3" height="3" fill="white"/>
</svg>
