<svg width="226" height="226" viewBox="0 0 226 226" fill="none" xmlns="http://www.w3.org/2000/svg">
<mask id="mask0_223_202" style="mask-type:alpha" maskUnits="userSpaceOnUse" x="0" y="0" width="226" height="226">
<rect width="226" height="226" fill="#D9D9D9"/>
</mask>
<g mask="url(#mask0_223_202)">
<path d="M113.001 113C102.643 113 93.7756 109.312 86.3992 101.936C79.0228 94.5593 75.3346 85.692 75.3346 75.3337C75.3346 64.9753 79.0228 56.108 86.3992 48.7316C93.7756 41.3552 102.643 37.667 113.001 37.667C123.36 37.667 132.227 41.3552 139.603 48.7316C146.98 56.108 150.668 64.9753 150.668 75.3337C150.668 85.692 146.98 94.5593 139.603 101.936C132.227 109.312 123.36 113 113.001 113ZM37.668 188.334V161.967C37.668 156.631 39.0412 151.726 41.7878 147.253C44.5343 142.781 48.1832 139.367 52.7346 137.013C62.4652 132.148 72.3527 128.499 82.3971 126.066C92.4416 123.633 102.643 122.417 113.001 122.417C123.36 122.417 133.561 123.633 143.605 126.066C153.65 128.499 163.537 132.148 173.268 137.013C177.819 139.367 181.468 142.781 184.215 147.253C186.961 151.726 188.335 156.631 188.335 161.967V188.334H37.668Z" fill="#6A6A6A"/>
</g>
</svg>
