<svg width="211" height="178" viewBox="0 0 211 178" fill="none" xmlns="http://www.w3.org/2000/svg">
<path d="M120.626 64.5653C119.024 64.5653 116.967 64.0512 114.397 62.5391L105.354 57.1864C104.417 56.6421 102.602 56.6421 101.695 57.1864L92.6229 62.5391C87.2702 65.7145 84.1251 64.4443 82.7037 63.4161C81.3126 62.3879 79.1353 59.7569 80.5566 53.7087L82.7037 44.4246C82.9457 43.4569 82.4618 41.7936 81.736 41.0678L74.2362 33.568C70.4863 29.818 70.7887 26.6125 71.3028 25.0398C71.8169 23.4673 73.4499 20.6851 78.6514 19.8081L88.2984 18.2053C89.2056 18.0541 90.506 17.0863 90.8991 16.2698L96.2519 5.59464C98.6711 0.725791 101.846 0 103.51 0C105.173 0 108.348 0.725791 110.768 5.59464L116.09 16.2396C116.513 17.0561 117.814 18.0238 118.721 18.175L128.368 19.7778C133.6 20.6548 135.233 23.437 135.717 25.0096C136.201 26.5822 136.503 29.7878 132.783 33.5377L125.283 41.0678C124.558 41.7936 124.104 43.4266 124.316 44.4246L126.463 53.7087C127.854 59.7569 125.707 62.3879 124.316 63.4161C123.56 63.9605 122.35 64.5653 120.626 64.5653Z" fill="#E9E9E9"/>
<path d="M183.258 92.1724C182.087 92.1724 180.584 91.7968 178.706 90.6921L172.1 86.7813C171.415 86.3836 170.089 86.3836 169.426 86.7813L162.798 90.6921C158.887 93.012 156.589 92.084 155.551 91.3328C154.535 90.5816 152.944 88.6593 153.982 84.2404L155.551 77.4573C155.728 76.7503 155.374 75.535 154.844 75.0048L149.364 69.5253C146.625 66.7855 146.846 64.4435 147.221 63.2945C147.597 62.1455 148.79 60.1128 152.59 59.4721L159.638 58.3011C160.301 58.1906 161.251 57.4835 161.539 56.887L165.449 49.0875C167.217 45.5303 169.537 45 170.752 45C171.967 45 174.287 45.5303 176.055 49.0875L179.944 56.8649C180.253 57.4615 181.203 58.1685 181.866 58.279L188.914 59.45C192.736 60.0907 193.93 62.1234 194.283 63.2724C194.637 64.4214 194.858 66.7634 192.14 69.5032L186.66 75.0048C186.13 75.535 185.799 76.7282 185.953 77.4573L187.522 84.2404C188.538 88.6593 186.97 90.5816 185.953 91.3328C185.401 91.7305 184.517 92.1724 183.258 92.1724Z" fill="#E9E9E9"/>
<path d="M48.2578 92.1724C47.0867 92.1724 45.5843 91.7968 43.7062 90.6921L37.0999 86.7813C36.4149 86.3836 35.0893 86.3836 34.4264 86.7813L27.798 90.6921C23.8873 93.012 21.5894 92.084 20.5509 91.3328C19.5346 90.5816 17.9438 88.6593 18.9822 84.2404L20.5509 77.4573C20.7277 76.7503 20.3742 75.535 19.8439 75.0048L14.3644 69.5253C11.6246 66.7855 11.8456 64.4435 12.2212 63.2945C12.5968 62.1455 13.7899 60.1128 17.5902 59.4721L24.6385 58.3011C25.3013 58.1906 26.2514 57.4835 26.5386 56.887L30.4494 49.0875C32.2169 45.5303 34.5369 45 35.7521 45C36.9673 45 39.2873 45.5303 41.0549 49.0875L44.9435 56.8649C45.2529 57.4615 46.2029 58.1685 46.8658 58.279L53.914 59.45C57.7364 60.0907 58.9295 62.1234 59.283 63.2724C59.6366 64.4214 59.8575 66.7634 57.1398 69.5032L51.6603 75.0048C51.1301 75.535 50.7986 76.7282 50.9533 77.4573L52.522 84.2404C53.5384 88.6593 51.9697 90.5816 50.9533 91.3328C50.4009 91.7305 49.5172 92.1724 48.2578 92.1724Z" fill="#E9E9E9"/>
<mask id="mask0_96_105" style="mask-type:alpha" maskUnits="userSpaceOnUse" x="0" y="37" width="211" height="141">
<rect y="37" width="211" height="141" fill="#D9D9D9"/>
</mask>
<g mask="url(#mask0_96_105)">
<path fill-rule="evenodd" clip-rule="evenodd" d="M158.493 171.333H196C198.291 171.333 200.253 170.517 201.885 168.885C203.517 167.253 204.333 165.292 204.333 163V159.667C204.333 157.306 203.725 155.135 202.51 153.156C201.295 151.177 199.68 149.667 197.666 148.625C193.361 146.472 188.986 144.858 184.541 143.781C180.097 142.705 175.583 142.167 171 142.167C166.416 142.167 161.902 142.705 157.458 143.781C156.762 143.95 156.067 144.132 155.374 144.327C155.411 144.386 155.449 144.446 155.485 144.506C157.491 147.772 158.493 151.353 158.493 155.248V160.748V171.333ZM159.229 133.104C162.493 136.368 166.416 138 171 138C175.583 138 179.507 136.368 182.771 133.104C186.034 129.84 187.666 125.917 187.666 121.333C187.666 116.75 186.034 112.826 182.771 109.562C179.507 106.299 175.583 104.667 171 104.667C166.416 104.667 162.493 106.299 159.229 109.562C155.965 112.826 154.333 116.75 154.333 121.333C154.333 125.917 155.965 129.84 159.229 133.104Z" fill="#E9E9E9"/>
</g>
<mask id="mask1_96_105" style="mask-type:alpha" maskUnits="userSpaceOnUse" x="0" y="37" width="211" height="141">
<rect y="37" width="211" height="141" fill="#D9D9D9"/>
</mask>
<g mask="url(#mask1_96_105)">
<path fill-rule="evenodd" clip-rule="evenodd" d="M48.4938 171.333C48.4935 167.911 48.4935 163.542 48.4935 160.748V155.248C48.4935 151.353 49.4961 147.772 51.5013 144.506C51.5388 144.445 51.5766 144.384 51.6146 144.324C50.9253 144.13 50.2342 143.949 49.5415 143.781C45.0971 142.705 40.5832 142.167 35.9998 142.167C31.4165 142.167 26.9026 142.705 22.4582 143.781C18.0137 144.858 13.6387 146.472 9.33317 148.625C7.31928 149.667 5.7047 151.177 4.48942 153.156C3.27414 155.135 2.6665 157.306 2.6665 159.667V163C2.6665 165.292 3.48248 167.253 5.11442 168.885C6.74637 170.517 8.70817 171.333 10.9998 171.333H48.4938ZM24.229 133.104C27.4929 136.368 31.4165 138 35.9998 138C40.5832 138 44.5068 136.368 47.7707 133.104C51.0346 129.84 52.6665 125.917 52.6665 121.333C52.6665 116.75 51.0346 112.826 47.7707 109.562C44.5068 106.299 40.5832 104.667 35.9998 104.667C31.4165 104.667 27.4929 106.299 24.229 109.562C20.9651 112.826 19.3332 116.75 19.3332 121.333C19.3332 125.917 20.9651 129.84 24.229 133.104Z" fill="#E9E9E9"/>
</g>
<mask id="mask2_96_105" style="mask-type:alpha" maskUnits="userSpaceOnUse" x="36" y="59" width="135" height="119">
<rect x="36" y="59" width="135" height="119" fill="#D9D9D9"/>
</mask>
<g mask="url(#mask2_96_105)">
<path d="M103.497 126.499C97.3091 126.499 92.0122 124.296 87.6059 119.89C83.1997 115.484 80.9966 110.187 80.9966 103.999C80.9966 97.8116 83.1997 92.5148 87.6059 88.1085C92.0122 83.7023 97.3091 81.4991 103.497 81.4991C109.684 81.4991 114.981 83.7023 119.387 88.1085C123.793 92.5148 125.997 97.8116 125.997 103.999C125.997 110.187 123.793 115.484 119.387 119.89C114.981 124.296 109.684 126.499 103.497 126.499ZM69.7466 171.499C66.6528 171.499 64.0044 170.398 61.8013 168.194C59.5981 165.991 58.4966 163.343 58.4966 160.249V155.749C58.4966 152.562 59.3169 149.632 60.9575 146.96C62.5981 144.288 64.7778 142.249 67.4966 140.843C73.3091 137.937 79.2153 135.757 85.2153 134.304C91.2153 132.851 97.3091 132.124 103.497 132.124C109.684 132.124 115.778 132.851 121.778 134.304C127.778 135.757 133.684 137.937 139.497 140.843C142.215 142.249 144.395 144.288 146.036 146.96C147.676 149.632 148.497 152.562 148.497 155.749V160.249C148.497 163.343 147.395 165.991 145.192 168.194C142.989 170.398 140.34 171.499 137.247 171.499H69.7466Z" fill="#E9E9E9"/>
</g>
</svg>
