<svg width="318" height="269" viewBox="0 0 318 269" fill="none" xmlns="http://www.w3.org/2000/svg">
<path d="M181.799 97.307C179.383 97.307 176.284 96.5321 172.41 94.2533L158.782 86.1862C157.369 85.3658 154.635 85.3658 153.267 86.1862L139.594 94.2533C131.527 99.0389 126.787 97.1246 124.645 95.575C122.549 94.0254 119.267 90.0602 121.409 80.9448L124.645 66.9527C125.01 65.4942 124.281 62.9875 123.187 61.8937L111.884 50.5906C106.232 44.939 106.688 40.1079 107.463 37.7377C108.237 35.3677 110.699 31.1746 118.538 29.8529L133.077 27.4373C134.444 27.2094 136.404 25.751 136.997 24.5204L145.064 8.43174C148.71 1.09385 153.495 0 156.002 0C158.509 0 163.294 1.09385 166.94 8.43174L174.962 24.4748C175.6 25.7054 177.56 27.1639 178.927 27.3918L193.466 29.8073C201.351 31.1291 203.812 35.3221 204.541 37.6921C205.271 40.0623 205.726 44.8934 200.12 50.545L188.817 61.8937C187.724 62.9875 187.04 65.4487 187.359 66.9527L190.595 80.9448C192.691 90.0602 189.455 94.0254 187.359 95.575C186.22 96.3954 184.396 97.307 181.799 97.307Z" fill="#E9E9E9"/>
<path d="M276.188 138.914C274.423 138.914 272.159 138.348 269.329 136.683L259.372 130.789C258.34 130.19 256.342 130.19 255.343 130.789L245.353 136.683C239.459 140.179 235.996 138.781 234.431 137.649C232.899 136.516 230.502 133.619 232.067 126.96L234.431 116.737C234.698 115.671 234.165 113.84 233.366 113.041L225.107 104.782C220.978 100.653 221.311 97.1235 221.877 95.3918C222.443 93.6603 224.242 90.5967 229.969 89.6311L240.591 87.8662C241.59 87.6997 243.022 86.6341 243.455 85.7351L249.349 73.9804C252.013 68.6192 255.509 67.8201 257.341 67.8201C259.172 67.8201 262.669 68.6192 265.333 73.9804L271.193 85.7018C271.66 86.6008 273.091 87.6664 274.09 87.8329L284.713 89.5978C290.474 90.5634 292.272 93.627 292.805 95.3585C293.337 97.0902 293.67 100.62 289.575 104.749L281.316 113.041C280.517 113.84 280.018 115.638 280.251 116.737L282.615 126.96C284.147 133.619 281.783 136.516 280.251 137.649C279.418 138.248 278.086 138.914 276.188 138.914Z" fill="#E9E9E9"/>
<path d="M72.7312 138.914C70.9664 138.914 68.702 138.348 65.8716 136.683L55.9151 130.789C54.8829 130.19 52.8849 130.19 51.8859 130.789L41.8962 136.683C36.0023 140.18 32.5392 138.781 30.9741 137.649C29.4423 136.517 27.0448 133.62 28.6099 126.96L30.9741 116.737C31.2405 115.671 30.7077 113.84 29.9085 113.041L21.6503 104.783C17.5212 100.653 17.8542 97.1237 18.4203 95.3921C18.9864 93.6605 20.7845 90.597 26.512 89.6313L37.1345 87.8664C38.1334 87.7 39.5653 86.6344 39.9982 85.7353L45.8921 73.9807C48.556 68.6195 52.0524 67.8203 53.8839 67.8203C55.7153 67.8203 59.2118 68.6195 61.8757 73.9807L67.7364 85.702C68.2025 86.6011 69.6344 87.6667 70.6334 87.8332L81.2558 89.598C87.0166 90.5637 88.8148 93.6272 89.3475 95.3588C89.8803 97.0904 90.2133 100.62 86.1175 104.749L77.8593 113.041C77.0601 113.84 76.5606 115.638 76.7937 116.737L79.158 126.96C80.6897 133.62 78.3255 136.517 76.7937 137.649C75.9613 138.248 74.6293 138.914 72.7312 138.914Z" fill="#E9E9E9"/>
<mask id="mask0_118_27" style="mask-type:alpha" maskUnits="userSpaceOnUse" x="0" y="55" width="318" height="214">
<rect y="55.7632" width="318" height="212.502" fill="#D9D9D9"/>
</mask>
<g mask="url(#mask0_118_27)">
<path fill-rule="evenodd" clip-rule="evenodd" d="M238.867 258.217H295.394C298.848 258.217 301.804 256.988 304.264 254.528C306.723 252.069 307.953 249.112 307.953 245.658V240.634C307.953 237.076 307.037 233.805 305.206 230.822C303.374 227.84 300.941 225.563 297.906 223.993C291.417 220.749 284.823 218.316 278.125 216.693C271.427 215.071 264.624 214.26 257.716 214.26C250.809 214.26 244.006 215.071 237.307 216.693C236.258 216.948 235.21 217.222 234.166 217.516C234.222 217.606 234.278 217.696 234.334 217.786C237.356 222.708 238.867 228.105 238.867 233.976V242.265V258.217ZM239.976 200.602C244.895 205.521 250.809 207.98 257.716 207.98C264.624 207.98 270.537 205.521 275.456 200.602C280.375 195.683 282.835 189.769 282.835 182.862C282.835 175.954 280.375 170.041 275.456 165.122C270.537 160.203 264.624 157.743 257.716 157.743C250.809 157.743 244.895 160.203 239.976 165.122C235.057 170.041 232.598 175.954 232.598 182.862C232.598 189.769 235.057 195.683 239.976 200.602Z" fill="#E9E9E9"/>
</g>
<mask id="mask1_118_27" style="mask-type:alpha" maskUnits="userSpaceOnUse" x="0" y="55" width="318" height="214">
<rect y="55.7632" width="318" height="212.502" fill="#D9D9D9"/>
</mask>
<g mask="url(#mask1_118_27)">
<path fill-rule="evenodd" clip-rule="evenodd" d="M73.0862 258.217C73.0858 253.059 73.0858 246.475 73.0858 242.265V233.976C73.0858 228.105 74.5968 222.708 77.6189 217.787C77.6754 217.695 77.7323 217.603 77.7896 217.512C76.7498 217.219 75.7076 216.946 74.6628 216.693C67.9645 215.071 61.1616 214.26 54.254 214.26C47.3465 214.26 40.5435 215.071 33.8453 216.693C27.147 218.316 20.5534 220.749 14.0645 223.993C11.0293 225.563 8.59598 227.84 6.76442 230.822C4.93287 233.805 4.01709 237.076 4.01709 240.634V245.658C4.01709 249.112 5.24685 252.069 7.70637 254.528C10.1659 256.988 13.1225 258.217 16.5763 258.217H73.0862ZM36.5141 200.602C41.4332 205.521 47.3465 207.98 54.254 207.98C61.1616 207.98 67.0749 205.521 71.994 200.602C76.913 195.683 79.3725 189.769 79.3725 182.862C79.3725 175.954 76.913 170.041 71.994 165.122C67.0749 160.203 61.1616 157.743 54.254 157.743C47.3465 157.743 41.4332 160.203 36.5141 165.122C31.5951 170.041 29.1356 175.954 29.1356 182.862C29.1356 189.769 31.5951 195.683 36.5141 200.602Z" fill="#E9E9E9"/>
</g>
<mask id="mask2_118_27" style="mask-type:alpha" maskUnits="userSpaceOnUse" x="54" y="88" width="204" height="181">
<rect x="54.2559" y="88.9189" width="203.46" height="179.346" fill="#D9D9D9"/>
</mask>
<g mask="url(#mask2_118_27)">
<path d="M155.978 190.648C146.653 190.648 138.67 187.327 132.03 180.687C125.389 174.046 122.069 166.063 122.069 156.738C122.069 147.412 125.389 139.429 132.03 132.789C138.67 126.148 146.653 122.828 155.978 122.828C165.304 122.828 173.287 126.148 179.927 132.789C186.568 139.429 189.888 147.412 189.888 156.738C189.888 166.063 186.568 174.046 179.927 180.687C173.287 187.327 165.304 190.648 155.978 190.648ZM105.114 258.467C100.451 258.467 96.4595 256.807 93.1392 253.487C89.8189 250.167 88.1587 246.175 88.1587 241.513V234.731C88.1587 229.927 89.395 225.511 91.8676 221.484C94.3402 217.458 97.6252 214.385 101.723 212.265C110.483 207.885 119.384 204.6 128.427 202.41C137.469 200.22 146.653 199.125 155.978 199.125C165.304 199.125 174.488 200.22 183.53 202.41C192.573 204.6 201.474 207.885 210.234 212.265C214.332 214.385 217.617 217.458 220.089 221.484C222.562 225.511 223.798 229.927 223.798 234.731V241.513C223.798 246.175 222.138 250.167 218.818 253.487C215.497 256.807 211.506 258.467 206.843 258.467H105.114Z" fill="#E9E9E9"/>
</g>
</svg>
