<svg width="349" height="258" viewBox="0 0 349 258" fill="none" xmlns="http://www.w3.org/2000/svg">
<path d="M51.5714 25C51.1814 25 50.8471 25.0557 50.5129 25.1671C48.34 25.6129 46.6129 27.34 46.1671 29.5129C46 29.8471 46 30.1814 46 30.5714V61.2143C46 65.8386 49.7329 69.5714 54.3571 69.5714H85V64H54.3571C52.7971 64 51.5714 62.7743 51.5714 61.2143C51.5714 59.6543 52.7971 58.4286 54.3571 58.4286H85V27.7857C85 26.2257 83.7743 25 82.2143 25H79.4286V41.7143L73.8571 36.1429L68.2857 41.7143V25H51.5714Z" fill="#E9E9E9"/>
<rect x="14" y="14" width="71" height="71" rx="6" fill="#0E3161"/>
<rect x="97" y="14" width="71" height="71" rx="6" fill="#0E3161"/>
<rect x="180" y="14" width="71" height="71" rx="6" fill="#0E3161"/>
<rect x="263" y="14" width="71" height="71" rx="6" fill="#0E3161"/>
<path d="M35.5714 27C35.1814 27 34.8471 27.0557 34.5129 27.1671C32.34 27.6129 30.6129 29.34 30.1671 31.5129C30 31.8471 30 32.1814 30 32.5714V63.2143C30 67.8386 33.7329 71.5714 38.3571 71.5714H69V66H38.3571C36.7971 66 35.5714 64.7743 35.5714 63.2143C35.5714 61.6543 36.7971 60.4286 38.3571 60.4286H69V29.7857C69 28.2257 67.7743 27 66.2143 27H63.4286V43.7143L57.8571 38.1429L52.2857 43.7143V27H35.5714Z" fill="#E9E9E9"/>
<rect x="14" y="100" width="71" height="71" rx="6" fill="#0E3161"/>
<rect x="97" y="100" width="71" height="71" rx="6" fill="#0E3161"/>
<rect x="180" y="100" width="71" height="71" rx="6" fill="#0E3161"/>
<rect x="263" y="100" width="71" height="71" rx="6" fill="#0E3161"/>
<rect x="14" y="187" width="71" height="71" rx="6" fill="#0E3161"/>
<rect x="97" y="187" width="71" height="71" rx="6" fill="#0E3161"/>
<rect x="180" y="187" width="71" height="71" rx="6" fill="#0E3161"/>
<rect x="263" y="187" width="71" height="71" rx="6" fill="#0E3161"/>
<mask id="mask0_116_557" style="mask-type:alpha" maskUnits="userSpaceOnUse" x="74" y="0" width="29" height="29">
<rect x="74" width="29" height="29" fill="#D9D9D9"/>
</mask>
<g mask="url(#mask0_116_557)">
<path d="M86.8072 20.058L95.3259 11.5393L93.6343 9.84763L86.8072 16.6747L83.3634 13.231L81.6718 14.9226L86.8072 20.058ZM88.4989 26.583C86.8273 26.583 85.2565 26.2659 83.7864 25.6315C82.3162 24.9971 81.0374 24.1362 79.9499 23.0487C78.8624 21.9612 78.0015 20.6824 77.3671 19.2122C76.7327 17.7421 76.4155 16.1712 76.4155 14.4997C76.4155 12.8282 76.7327 11.2574 77.3671 9.78721C78.0015 8.31708 78.8624 7.03826 79.9499 5.95076C81.0374 4.86326 82.3162 4.00232 83.7864 3.36794C85.2565 2.73357 86.8273 2.41638 88.4989 2.41638C90.1704 2.41638 91.7412 2.73357 93.2114 3.36794C94.6815 4.00232 95.9603 4.86326 97.0478 5.95076C98.1353 7.03826 98.9963 8.31708 99.6306 9.78721C100.265 11.2574 100.582 12.8282 100.582 14.4997C100.582 16.1712 100.265 17.7421 99.6306 19.2122C98.9963 20.6824 98.1353 21.9612 97.0478 23.0487C95.9603 24.1362 94.6815 24.9971 93.2114 25.6315C91.7412 26.2659 90.1704 26.583 88.4989 26.583Z" fill="#E9E9E9"/>
</g>
<mask id="mask1_116_557" style="mask-type:alpha" maskUnits="userSpaceOnUse" x="152" y="175" width="29" height="29">
<rect x="152" y="175" width="29" height="29" fill="#D9D9D9"/>
</mask>
<g mask="url(#mask1_116_557)">
<path d="M164.807 195.058L173.326 186.539L171.634 184.848L164.807 191.675L161.363 188.231L159.672 189.923L164.807 195.058ZM166.499 201.583C164.827 201.583 163.256 201.266 161.786 200.631C160.316 199.997 159.037 199.136 157.95 198.049C156.862 196.961 156.001 195.682 155.367 194.212C154.733 192.742 154.416 191.171 154.416 189.5C154.416 187.828 154.733 186.257 155.367 184.787C156.001 183.317 156.862 182.038 157.95 180.951C159.037 179.863 160.316 179.002 161.786 178.368C163.256 177.734 164.827 177.416 166.499 177.416C168.17 177.416 169.741 177.734 171.211 178.368C172.681 179.002 173.96 179.863 175.048 180.951C176.135 182.038 176.996 183.317 177.631 184.787C178.265 186.257 178.582 187.828 178.582 189.5C178.582 191.171 178.265 192.742 177.631 194.212C176.996 195.682 176.135 196.961 175.048 198.049C173.96 199.136 172.681 199.997 171.211 200.631C169.741 201.266 168.17 201.583 166.499 201.583Z" fill="#E9E9E9"/>
</g>
<mask id="mask2_116_557" style="mask-type:alpha" maskUnits="userSpaceOnUse" x="320" y="175" width="29" height="29">
<rect x="320" y="175" width="29" height="29" fill="#D9D9D9"/>
</mask>
<g mask="url(#mask2_116_557)">
<path d="M332.807 195.058L341.326 186.539L339.634 184.848L332.807 191.675L329.363 188.231L327.672 189.923L332.807 195.058ZM334.499 201.583C332.827 201.583 331.256 201.266 329.786 200.631C328.316 199.997 327.037 199.136 325.95 198.049C324.862 196.961 324.001 195.682 323.367 194.212C322.733 192.742 322.416 191.171 322.416 189.5C322.416 187.828 322.733 186.257 323.367 184.787C324.001 183.317 324.862 182.038 325.95 180.951C327.037 179.863 328.316 179.002 329.786 178.368C331.256 177.734 332.827 177.416 334.499 177.416C336.17 177.416 337.741 177.734 339.211 178.368C340.681 179.002 341.96 179.863 343.048 180.951C344.135 182.038 344.996 183.317 345.631 184.787C346.265 186.257 346.582 187.828 346.582 189.5C346.582 191.171 346.265 192.742 345.631 194.212C344.996 195.682 344.135 196.961 343.048 198.049C341.96 199.136 340.681 199.997 339.211 200.631C337.741 201.266 336.17 201.583 334.499 201.583Z" fill="#E9E9E9"/>
</g>
<mask id="mask3_116_557" style="mask-type:alpha" maskUnits="userSpaceOnUse" x="151" y="90" width="29" height="29">
<rect x="151" y="90" width="29" height="29" fill="#D9D9D9"/>
</mask>
<g mask="url(#mask3_116_557)">
<path d="M161.15 110.542L165.5 106.192L169.85 110.542L171.542 108.85L167.192 104.5L171.542 100.15L169.85 98.4583L165.5 102.808L161.15 98.4583L159.458 100.15L163.808 104.5L159.458 108.85L161.15 110.542ZM165.5 116.583C163.828 116.583 162.257 116.266 160.787 115.632C159.317 114.997 158.038 114.136 156.951 113.049C155.863 111.961 155.002 110.683 154.368 109.212C153.734 107.742 153.417 106.171 153.417 104.5C153.417 102.828 153.734 101.258 154.368 99.7875C155.002 98.3173 155.863 97.0385 156.951 95.951C158.038 94.8635 159.317 94.0026 160.787 93.3682C162.257 92.7338 163.828 92.4166 165.5 92.4166C167.171 92.4166 168.742 92.7338 170.212 93.3682C171.682 94.0026 172.961 94.8635 174.049 95.951C175.136 97.0385 175.997 98.3173 176.632 99.7875C177.266 101.258 177.583 102.828 177.583 104.5C177.583 106.171 177.266 107.742 176.632 109.212C175.997 110.683 175.136 111.961 174.049 113.049C172.961 114.136 171.682 114.997 170.212 115.632C168.742 116.266 167.171 116.583 165.5 116.583Z" fill="#E9E9E9"/>
</g>
<mask id="mask4_116_557" style="mask-type:alpha" maskUnits="userSpaceOnUse" x="0" y="175" width="29" height="29">
<rect y="175" width="29" height="29" fill="#D9D9D9"/>
</mask>
<g mask="url(#mask4_116_557)">
<path d="M10.1498 195.542L14.4998 191.192L18.8498 195.542L20.5415 193.85L16.1915 189.5L20.5415 185.15L18.8498 183.458L14.4998 187.808L10.1498 183.458L8.45817 185.15L12.8082 189.5L8.45817 193.85L10.1498 195.542ZM14.4998 201.583C12.8283 201.583 11.2575 201.266 9.78734 200.632C8.3172 199.997 7.03838 199.136 5.95088 198.049C4.86338 196.961 4.00244 195.683 3.36807 194.213C2.73369 192.742 2.4165 191.172 2.4165 189.5C2.4165 187.828 2.73369 186.258 3.36807 184.788C4.00244 183.317 4.86338 182.039 5.95088 180.951C7.03838 179.864 8.3172 179.003 9.78734 178.368C11.2575 177.734 12.8283 177.417 14.4998 177.417C16.1714 177.417 17.7422 177.734 19.2123 178.368C20.6825 179.003 21.9613 179.864 23.0488 180.951C24.1363 182.039 24.9972 183.317 25.6316 184.788C26.266 186.258 26.5832 187.828 26.5832 189.5C26.5832 191.172 26.266 192.742 25.6316 194.213C24.9972 195.683 24.1363 196.961 23.0488 198.049C21.9613 199.136 20.6825 199.997 19.2123 200.632C17.7422 201.266 16.1714 201.583 14.4998 201.583Z" fill="#E9E9E9"/>
</g>
<mask id="mask5_116_557" style="mask-type:alpha" maskUnits="userSpaceOnUse" x="317" y="0" width="29" height="29">
<rect x="317" width="29" height="29" fill="#D9D9D9"/>
</mask>
<g mask="url(#mask5_116_557)">
<path d="M327.15 20.5416L331.5 16.1916L335.85 20.5416L337.542 18.85L333.192 14.5L337.542 10.15L335.85 8.45829L331.5 12.8083L327.15 8.45829L325.458 10.15L329.808 14.5L325.458 18.85L327.15 20.5416ZM331.5 26.5833C329.828 26.5833 328.257 26.2661 326.787 25.6317C325.317 24.9974 324.038 24.1364 322.951 23.0489C321.863 21.9614 321.002 20.6826 320.368 19.2125C319.734 17.7423 319.417 16.1715 319.417 14.5C319.417 12.8284 319.734 11.2576 320.368 9.78746C321.002 8.31732 321.863 7.0385 322.951 5.951C324.038 4.8635 325.317 4.00256 326.787 3.36819C328.257 2.73381 329.828 2.41663 331.5 2.41663C333.171 2.41663 334.742 2.73381 336.212 3.36819C337.682 4.00256 338.961 4.8635 340.049 5.951C341.136 7.0385 341.997 8.31732 342.632 9.78746C343.266 11.2576 343.583 12.8284 343.583 14.5C343.583 16.1715 343.266 17.7423 342.632 19.2125C341.997 20.6826 341.136 21.9614 340.049 23.0489C338.961 24.1364 337.682 24.9974 336.212 25.6317C334.742 26.2661 333.171 26.5833 331.5 26.5833Z" fill="#E9E9E9"/>
</g>
<path d="M138.073 47.9789L150.967 39.3446C152.266 38.4789 152.608 36.702 151.742 35.4262L147.596 29.2523C146.73 27.9538 144.953 27.6121 143.677 28.4778L130.783 37.112L138.073 47.9789Z" fill="#E9E9E9"/>
<path d="M137.341 46.8922L133.332 49.5804L127.249 53.6583L126.452 54.1823L126.087 53.6355L120.984 46.0265L120.62 45.4796L131.509 38.1895L137.341 46.8922Z" fill="#E9E9E9"/>
<path d="M117.11 59.6442L126.109 53.6298L121.006 46.0208L112.007 52.0351C110.959 52.7414 110.686 54.1538 111.392 55.2018L113.966 59.0291C114.65 60.0771 116.062 60.3504 117.11 59.6442Z" fill="#E9E9E9"/>
<path d="M141.989 72.8406C141.761 72.9317 141.51 73 141.282 73C140.622 73 140.007 72.6128 139.71 71.9749L131.213 53.2027L122.601 71.9976C122.305 72.6128 121.69 73 121.029 73C120.802 73 120.551 72.9317 120.323 72.8406C119.48 72.4305 119.093 71.4281 119.48 70.5624L127.249 53.6584L133.331 49.5804L142.831 70.5852C143.219 71.4281 142.831 72.4533 141.989 72.8406Z" fill="#E9E9E9"/>
<path d="M58.1969 112H39.1828C30.9237 112 26 116.924 26 125.183V144.174C26 152.456 30.9237 157.38 39.1828 157.38H58.1742C66.4334 157.38 71.3571 152.456 71.3571 144.197V125.183C71.3797 116.924 66.456 112 58.1969 112ZM46.489 147.532C47.147 148.19 47.147 149.279 46.489 149.937C46.1486 150.278 45.7175 150.437 45.2864 150.437C44.8553 150.437 44.4242 150.278 44.0838 149.937L40.1812 146.035L36.2785 149.937C35.9382 150.255 35.5071 150.437 35.0759 150.437C34.6448 150.437 34.2137 150.278 33.8734 149.937C33.2154 149.279 33.2154 148.19 33.8734 147.532L37.776 143.63L33.8734 139.727C33.2154 139.069 33.2154 137.98 33.8734 137.322C34.5314 136.664 35.6205 136.664 36.2785 137.322L40.1812 141.225L44.0838 137.322C44.7418 136.664 45.8309 136.664 46.489 137.322C47.147 137.98 47.147 139.069 46.489 139.727L42.5863 143.63L46.489 147.532ZM45.2864 127.452H35.0759C34.1457 127.452 33.3742 126.68 33.3742 125.75C33.3742 124.82 34.1457 124.048 35.0759 124.048H45.2864C46.2167 124.048 46.9881 124.82 46.9881 125.75C46.9881 126.68 46.2167 127.452 45.2864 127.452ZM62.3038 149.574H52.0934C51.1631 149.574 50.3916 148.803 50.3916 147.873C50.3916 146.942 51.1631 146.171 52.0934 146.171H62.3038C63.2341 146.171 64.0055 146.942 64.0055 147.873C64.0055 148.803 63.2341 149.574 62.3038 149.574ZM62.3038 141.066H52.0934C51.1631 141.066 50.3916 140.294 50.3916 139.364C50.3916 138.434 51.1631 137.662 52.0934 137.662H62.3038C63.2341 137.662 64.0055 138.434 64.0055 139.364C64.0055 140.294 63.2341 141.066 62.3038 141.066ZM62.3038 127.452H58.9457V130.855C58.9457 131.786 58.1742 132.557 57.244 132.557C56.3137 132.557 55.5422 131.786 55.5422 130.855V127.452H52.0934C51.1631 127.452 50.3916 126.68 50.3916 125.75C50.3916 124.82 51.1631 124.048 52.0934 124.048H55.5422V120.645C55.5422 119.715 56.3137 118.943 57.244 118.943C58.1742 118.943 58.9457 119.715 58.9457 120.645V124.048H62.3038C63.2341 124.048 64.0055 124.82 64.0055 125.75C64.0055 126.68 63.2341 127.452 62.3038 127.452Z" fill="#E9E9E9"/>
<path d="M214.746 69.9099C216.069 69.9099 217.142 68.8374 217.142 67.5144C217.142 66.1914 216.069 65.1189 214.746 65.1189C213.423 65.1189 212.351 66.1914 212.351 67.5144C212.351 68.8374 213.423 69.9099 214.746 69.9099Z" fill="#E9E9E9"/>
<path d="M214.745 55.5369C211.645 55.5368 208.665 56.739 206.433 58.8906C205.976 59.3321 205.712 59.9373 205.701 60.573C205.69 61.2087 205.932 61.8228 206.373 62.2802C206.815 62.7376 207.42 63.0009 208.056 63.0122C208.691 63.0234 209.305 62.7817 209.763 62.3401C211.123 61.0944 212.901 60.4035 214.745 60.4035C216.59 60.4035 218.368 61.0944 219.728 62.3401C220.186 62.7817 220.8 63.0234 221.435 63.0122C222.071 63.0009 222.676 62.7376 223.118 62.2802C223.559 61.8228 223.801 61.2087 223.79 60.573C223.779 59.9373 223.515 59.3321 223.058 58.8906C220.826 56.739 217.846 55.5368 214.745 55.5369Z" fill="#E9E9E9"/>
<path d="M214.746 43.5594C211.853 43.5613 208.989 44.1455 206.327 45.2773C203.664 46.409 201.256 48.0652 199.247 50.147C199.028 50.3782 198.857 50.6502 198.744 50.9475C198.63 51.2448 198.577 51.5615 198.585 51.8796C198.594 52.1977 198.666 52.5109 198.796 52.8014C198.926 53.0919 199.112 53.3539 199.343 53.5726C199.81 54.0141 200.433 54.2521 201.075 54.2341C201.394 54.2252 201.707 54.1538 201.997 54.0238C202.288 53.8939 202.55 53.708 202.768 53.4767C204.333 51.8539 206.208 50.563 208.282 49.6813C210.357 48.7996 212.588 48.3451 214.842 48.3451C217.096 48.3451 219.327 48.7996 221.401 49.6813C223.475 50.563 225.351 51.8539 226.915 53.4767C227.137 53.7031 227.401 53.8832 227.693 54.0065C227.985 54.1299 228.299 54.1941 228.616 54.1954C229.084 54.1936 229.541 54.0547 229.931 53.7958C230.321 53.537 230.627 53.1695 230.811 52.7388C230.994 52.3081 231.047 51.8331 230.964 51.3725C230.88 50.9119 230.664 50.4858 230.341 50.147C228.32 48.0535 225.897 46.3906 223.217 45.2585C220.537 44.1263 217.655 43.5484 214.746 43.5594Z" fill="#E9E9E9"/>
<path d="M238.03 40.9962C231.779 34.9657 223.432 31.5957 214.746 31.5957C206.06 31.5957 197.713 34.9657 191.462 40.9962C191.057 41.4457 190.838 42.0315 190.847 42.6359C190.857 43.2404 191.095 43.819 191.513 44.2555C191.931 44.692 192.499 44.9541 193.103 44.9894C193.706 45.0247 194.301 44.8305 194.767 44.4457C200.127 39.2645 207.291 36.3683 214.746 36.3683C222.201 36.3683 229.364 39.2645 234.724 44.4457C235.168 44.8737 235.76 45.114 236.377 45.1164C236.7 45.1152 237.019 45.0488 237.315 44.9212C237.612 44.7936 237.879 44.6074 238.102 44.3738C238.539 43.9156 238.776 43.3031 238.763 42.6702C238.749 42.0373 238.486 41.4354 238.03 40.9962Z" fill="#E9E9E9"/>
<path d="M276 28H321V73H276V28Z" fill="white" fill-opacity="0.01"/>
<path d="M305.062 68.3125C305.062 68.3125 292.875 69.25 286.312 61.75C279.75 54.25 279.75 31.75 279.75 31.75C279.75 31.75 302.25 30.8125 309.75 36.4375C317.25 42.0625 315.375 58 315.375 58" stroke="#E9E9E9" stroke-width="3" stroke-linecap="round" stroke-linejoin="round"/>
<path d="M317.25 69.25C317.25 69.25 306.769 61.3295 300.375 54.25C293.981 47.1705 291 40.1875 291 40.1875" stroke="#E9E9E9" stroke-width="3" stroke-linecap="round" stroke-linejoin="round"/>
<path d="M300.375 54.25L301.312 42.0625" stroke="#E9E9E9" stroke-width="3" stroke-linecap="round" stroke-linejoin="round"/>
<path d="M300.375 54.25L291 53.3125" stroke="#E9E9E9" stroke-width="3" stroke-linecap="round" stroke-linejoin="round"/>
<path d="M110 113H155V158H110V113Z" fill="white" fill-opacity="0.01"/>
<path d="M114.688 152.375H119.375" stroke="#E9E9E9" stroke-width="4.974" stroke-linecap="round" stroke-linejoin="round"/>
<path d="M114.688 146.75H119.375" stroke="#E9E9E9" stroke-width="4.974" stroke-linecap="round" stroke-linejoin="round"/>
<path d="M114.688 141.125H119.375" stroke="#E9E9E9" stroke-width="4.974" stroke-linecap="round" stroke-linejoin="round"/>
<path d="M114.688 135.5H119.375" stroke="#E9E9E9" stroke-width="4.974" stroke-linecap="round" stroke-linejoin="round"/>
<path d="M125 152.375H129.688" stroke="#E9E9E9" stroke-width="4.974" stroke-linecap="round" stroke-linejoin="round"/>
<path d="M125 146.75H129.688" stroke="#E9E9E9" stroke-width="4.974" stroke-linecap="round" stroke-linejoin="round"/>
<path d="M125 141.125H129.688" stroke="#E9E9E9" stroke-width="4.974" stroke-linecap="round" stroke-linejoin="round"/>
<path d="M125 135.5H129.688" stroke="#E9E9E9" stroke-width="4.974" stroke-linecap="round" stroke-linejoin="round"/>
<path d="M125 129.875H129.688" stroke="#E9E9E9" stroke-width="4.974" stroke-linecap="round" stroke-linejoin="round"/>
<path d="M125 124.25H129.688" stroke="#E9E9E9" stroke-width="4.974" stroke-linecap="round" stroke-linejoin="round"/>
<path d="M125 118.625H129.688" stroke="#E9E9E9" stroke-width="4.974" stroke-linecap="round" stroke-linejoin="round"/>
<path d="M135.312 152.375H140" stroke="#E9E9E9" stroke-width="4.974" stroke-linecap="round" stroke-linejoin="round"/>
<path d="M145.625 152.375H150.312" stroke="#E9E9E9" stroke-width="4.974" stroke-linecap="round" stroke-linejoin="round"/>
<path d="M135.312 146.75H140" stroke="#E9E9E9" stroke-width="4.974" stroke-linecap="round" stroke-linejoin="round"/>
<path d="M145.625 146.75H150.312" stroke="#E9E9E9" stroke-width="4.974" stroke-linecap="round" stroke-linejoin="round"/>
<path d="M135.312 141.125H140" stroke="#E9E9E9" stroke-width="4.974" stroke-linecap="round" stroke-linejoin="round"/>
<path d="M145.625 141.125H150.312" stroke="#E9E9E9" stroke-width="4.974" stroke-linecap="round" stroke-linejoin="round"/>
<path d="M145.625 135.5H150.312" stroke="#E9E9E9" stroke-width="4.974" stroke-linecap="round" stroke-linejoin="round"/>
<path d="M145.625 129.875H150.312" stroke="#E9E9E9" stroke-width="4.974" stroke-linecap="round" stroke-linejoin="round"/>
<path d="M201.351 144.2L208.7 134.75L215 144.2L221.3 134.75L226.55 143.15H236" stroke="#E9E9E9" stroke-width="4" stroke-miterlimit="2" stroke-linecap="round" stroke-linejoin="round"/>
<path d="M235.999 130.55C235.999 124.171 230.828 119 224.449 119C220.543 119 217.09 120.939 215 123.907C212.909 120.939 209.456 119 205.55 119C199.171 119 194 124.171 194 130.55C194 142.1 207.65 152.599 215 155.042C216.253 154.625 217.689 153.975 219.21 153.124" stroke="#E9E9E9" stroke-width="4" stroke-linecap="round" stroke-linejoin="round"/>
<path d="M276 112H321V157H276V112Z" fill="white" fill-opacity="0.01"/>
<path d="M317.25 122.312C317.25 122.312 317.25 145.808 317.25 147.625C317.25 150.732 308.855 153.25 298.5 153.25C288.145 153.25 279.75 150.732 279.75 147.625C279.75 145.883 279.75 122.312 279.75 122.312" stroke="#E9E9E9" stroke-width="3" stroke-linecap="round" stroke-linejoin="round"/>
<path d="M317.25 139.188C317.25 142.294 308.855 144.812 298.5 144.812C288.145 144.812 279.75 142.294 279.75 139.188" stroke="#E9E9E9" stroke-width="3" stroke-linecap="round" stroke-linejoin="round"/>
<path d="M317.25 130.75C317.25 133.857 308.855 136.375 298.5 136.375C288.145 136.375 279.75 133.857 279.75 130.75" stroke="#E9E9E9" stroke-width="3" stroke-linecap="round" stroke-linejoin="round"/>
<path d="M298.5 127C308.855 127 317.25 124.482 317.25 121.375C317.25 118.268 308.855 115.75 298.5 115.75C288.145 115.75 279.75 118.268 279.75 121.375C279.75 124.482 288.145 127 298.5 127Z" fill="#E9E9E9" stroke="#E9E9E9" stroke-width="3" stroke-linecap="round" stroke-linejoin="round"/>
<path d="M27 200H72V245H27V200Z" fill="white" fill-opacity="0.01"/>
<path d="M62.462 203.75C66.0259 207.115 68.25 211.883 68.25 217.171C68.25 227.363 59.9879 235.625 49.7961 235.625C44.5081 235.625 39.7396 233.401 36.375 229.837" stroke="#E9E9E9" stroke-width="3" stroke-linecap="round" stroke-linejoin="round"/>
<path fill-rule="evenodd" clip-rule="evenodd" d="M49.5 230C56.7487 230 62.625 224.124 62.625 216.875C62.625 209.626 56.7487 203.75 49.5 203.75C42.2512 203.75 36.375 209.626 36.375 216.875C36.375 224.124 42.2512 230 49.5 230Z" fill="#E9E9E9" stroke="#E9E9E9" stroke-width="3" stroke-linecap="round" stroke-linejoin="round"/>
<path d="M49.5 235.625V241.25" stroke="#E9E9E9" stroke-width="3" stroke-linecap="round" stroke-linejoin="round"/>
<path d="M43.875 241.25H55.125" stroke="#E9E9E9" stroke-width="3" stroke-linecap="round" stroke-linejoin="round"/>
<path d="M151.55 204H112.45C111.18 204 110.15 205.03 110.15 206.3V229.3C110.15 230.57 111.18 231.6 112.45 231.6H151.55C152.821 231.6 153.85 230.57 153.85 229.3V206.3C153.85 205.03 152.821 204 151.55 204Z" stroke="#E9E9E9" stroke-width="3"/>
<path d="M109 240.8H155" stroke="#E9E9E9" stroke-width="3" stroke-linecap="round" stroke-linejoin="round"/>
<path d="M129.699 210.9H134.299" stroke="white" stroke-width="3" stroke-linecap="round" stroke-linejoin="round"/>
<path d="M276 198H321V243H276V198Z" fill="white" fill-opacity="0.01"/>
<path d="M281.625 203.625V237.375H315.375" stroke="#E9E9E9" stroke-width="3" stroke-linecap="round" stroke-linejoin="round"/>
<path d="M289.125 229.875L296.625 214.875L306 223.312L315.375 203.625V229.875H289.125Z" stroke="#E9E9E9" stroke-width="3" stroke-linejoin="round"/>
<path d="M193 198H238V243H193V198Z" fill="white" fill-opacity="0.01"/>
<path d="M202.375 203.625C202.375 202.589 203.214 201.75 204.25 201.75H230.5C231.536 201.75 232.375 202.589 232.375 203.625V237.375C232.375 238.411 231.536 239.25 230.5 239.25H204.25C203.214 239.25 202.375 238.411 202.375 237.375V203.625Z" stroke="#E9E9E9" stroke-width="3" stroke-linejoin="round"/>
<path d="M224.875 203.625V237.375" stroke="white" stroke-width="3" stroke-linecap="round" stroke-linejoin="round"/>
<path d="M198.625 211.125H206.125" stroke="#E9E9E9" stroke-width="3" stroke-linecap="round" stroke-linejoin="round"/>
<path d="M198.625 220.5H206.125" stroke="#E9E9E9" stroke-width="3" stroke-linecap="round" stroke-linejoin="round"/>
<path d="M198.625 229.875H206.125" stroke="#E9E9E9" stroke-width="3" stroke-linecap="round" stroke-linejoin="round"/>
<path d="M218.312 201.75H229.562" stroke="#E9E9E9" stroke-width="3" stroke-linecap="round" stroke-linejoin="round"/>
<path d="M218.312 239.25H229.562" stroke="#E9E9E9" stroke-width="3" stroke-linecap="round" stroke-linejoin="round"/>
</svg>
