<svg width="25" height="25" viewBox="0 0 25 25" fill="none" xmlns="http://www.w3.org/2000/svg">
<mask id="mask0_472_7" style="mask-type:alpha" maskUnits="userSpaceOnUse" x="0" y="0" width="25" height="25">
<rect x="0.194336" y="0.6297" width="24" height="24" fill="#D9D9D9"/>
</mask>
<g mask="url(#mask0_472_7)">
<path d="M9.49049 14.5912L12.1943 12.9508L14.8981 14.5912L14.1808 11.5162L16.5789 9.44893L13.4232 9.18353L12.1943 6.28355L10.9655 9.18353L7.80971 9.44893L10.2078 11.5162L9.49049 14.5912ZM2.69434 21.6681V4.9374C2.69434 4.43227 2.86934 4.0047 3.21934 3.6547C3.56934 3.3047 3.9969 3.1297 4.50204 3.1297H19.8866C20.3917 3.1297 20.8193 3.3047 21.1693 3.6547C21.5193 4.0047 21.6943 4.43227 21.6943 4.9374V16.322C21.6943 16.8271 21.5193 17.2547 21.1693 17.6047C20.8193 17.9547 20.3917 18.1297 19.8866 18.1297H6.23279L2.69434 21.6681ZM5.59434 16.6297H19.8866C19.9635 16.6297 20.034 16.5976 20.0982 16.5335C20.1623 16.4694 20.1943 16.3989 20.1943 16.322V4.9374C20.1943 4.86047 20.1623 4.78994 20.0982 4.72583C20.034 4.66173 19.9635 4.62968 19.8866 4.62968H4.50204C4.4251 4.62968 4.35458 4.66173 4.29046 4.72583C4.22636 4.78994 4.19431 4.86047 4.19431 4.9374V18.0143L5.59434 16.6297Z" fill="#1C1B1F"/>
</g>
</svg>
