<svg width="300" height="263" viewBox="0 0 300 263" fill="none" xmlns="http://www.w3.org/2000/svg">
<path fill-rule="evenodd" clip-rule="evenodd" d="M34.1431 120.691H40.2735C47.3965 87.474 69.1891 59.7006 98.5398 44.4821V37.7676C65.8564 53.6439 41.5697 84.1062 34.1431 120.691ZM71.9779 225.152H63.5758C85.2003 248.344 116.024 262.845 150.234 262.845C184.445 262.845 215.268 248.344 236.893 225.152H228.491C208.247 244.77 180.651 256.845 150.234 256.845C119.818 256.845 92.2215 244.77 71.9779 225.152ZM203.001 38.2952C235.143 54.3129 258.98 84.5074 266.325 120.691H260.195C253.159 87.8798 231.81 60.38 203.001 45.0455V38.2952Z" fill="#E9E9E9"/>
<path d="M31.4068 178.487C27.1619 178.487 23.5281 176.975 20.5052 173.953C17.4824 170.93 15.971 167.296 15.971 163.051C15.971 158.806 17.4824 155.172 20.5052 152.15C23.5281 149.127 27.1619 147.615 31.4068 147.615C35.6516 147.615 39.2855 149.127 42.3083 152.15C45.3312 155.172 46.8426 158.806 46.8426 163.051C46.8426 167.296 45.3312 170.93 42.3083 173.953C39.2855 176.975 35.6516 178.487 31.4068 178.487ZM8.25306 209.359C6.13064 209.359 4.31372 208.603 2.80229 207.091C1.29087 205.58 0.535156 203.763 0.535156 201.641V198.553C0.535156 196.367 1.09792 194.357 2.22345 192.524C3.34898 190.691 4.84432 189.292 6.70948 188.327C10.6971 186.333 14.749 184.838 18.8652 183.841C22.9814 182.844 27.1619 182.346 31.4068 182.346C35.6516 182.346 39.8322 182.844 43.9484 183.841C48.0646 184.838 52.1165 186.333 56.1041 188.327C57.9693 189.292 59.4646 190.691 60.5901 192.524C61.7157 194.357 62.2784 196.367 62.2784 198.553V201.641C62.2784 203.763 61.5227 205.58 60.0113 207.091C58.4999 208.603 56.6829 209.359 54.5605 209.359H8.25306Z" fill="#E9E9E9"/>
<path d="M268.69 173.46C264.446 173.46 260.812 171.948 257.789 168.926C254.766 165.903 253.255 162.269 253.255 158.024C253.255 153.779 254.766 150.145 257.789 147.123C260.812 144.1 264.446 142.588 268.69 142.588C272.935 142.588 276.569 144.1 279.592 147.123C282.615 150.145 284.126 153.779 284.126 158.024C284.126 162.269 282.615 165.903 279.592 168.926C276.569 171.948 272.935 173.46 268.69 173.46ZM245.537 204.332C243.414 204.332 241.597 203.576 240.086 202.064C238.575 200.553 237.819 198.736 237.819 196.614V193.526C237.819 191.34 238.382 189.33 239.507 187.497C240.633 185.664 242.128 184.265 243.993 183.3C247.981 181.306 252.033 179.811 256.149 178.814C260.265 177.817 264.446 177.319 268.69 177.319C272.935 177.319 277.116 177.817 281.232 178.814C285.348 179.811 289.4 181.306 293.388 183.3C295.253 184.265 296.748 185.664 297.874 187.497C298.999 189.33 299.562 191.34 299.562 193.526V196.614C299.562 198.736 298.806 200.553 297.295 202.064C295.784 203.576 293.967 204.332 291.844 204.332H245.537Z" fill="#E9E9E9"/>
<path d="M150.23 31.3061C145.985 31.3061 142.351 29.7947 139.328 26.7718C136.306 23.749 134.794 20.1151 134.794 15.8703C134.794 11.6254 136.306 7.99157 139.328 4.96872C142.351 1.94587 145.985 0.434448 150.23 0.434448C154.475 0.434448 158.109 1.94587 161.132 4.96872C164.154 7.99157 165.666 11.6254 165.666 15.8703C165.666 20.1151 164.154 23.749 161.132 26.7718C158.109 29.7947 154.475 31.3061 150.23 31.3061ZM127.076 62.1777C124.954 62.1777 123.137 61.422 121.626 59.9106C120.114 58.3992 119.358 56.5823 119.358 54.4598V51.3727C119.358 49.1859 119.921 47.1761 121.047 45.3431C122.172 43.51 123.668 42.1112 125.533 41.1464C129.52 39.1526 133.572 37.6573 137.688 36.6604C141.805 35.6635 145.985 35.1651 150.23 35.1651C154.475 35.1651 158.655 35.6635 162.772 36.6604C166.888 37.6573 170.94 39.1526 174.927 41.1464C176.792 42.1112 178.288 43.51 179.413 45.3431C180.539 47.1761 181.102 49.1859 181.102 51.3727V54.4598C181.102 56.5823 180.346 58.3992 178.835 59.9106C177.323 61.422 175.506 62.1777 173.384 62.1777H127.076Z" fill="#E9E9E9"/>
<path d="M201.149 132.385H136.996C135.891 132.385 134.996 133.28 134.996 134.385V178.077C134.996 179.181 135.891 180.077 136.996 180.077H201.149C202.254 180.077 203.149 179.181 203.149 178.077V134.385C203.149 133.28 202.254 132.385 201.149 132.385Z" fill="#133E79" stroke="#E9E9E9" stroke-width="4"/>
<path d="M193.859 193.361L193.442 175.038H182.922L180.949 182.437L193.859 193.361Z" fill="#133E79" stroke="#133E79"/>
<path d="M177.154 180.49L196.142 199.478V176.692" stroke="#E9E9E9" stroke-width="4"/>
<path d="M194.823 157.807H178.927L181.45 165.375L194.823 166.267V157.807Z" fill="#133E79" stroke="#133E79"/>
<rect x="-0.5" y="0.5" width="10.3927" height="6.59511" transform="matrix(-1 0 0 1 199.389 170.23)" fill="#133E79" stroke="#133E79"/>
<rect width="5.69633" height="5.69633" transform="matrix(-1 0 0 1 142.497 155.068)" fill="#133E79"/>
<rect width="72.1535" height="51.267" rx="4" transform="matrix(-1 0 0 1 163.149 111)" fill="#E9E9E9"/>
<path d="M100.689 179.838L120.626 161.8L100.689 155.154V179.838Z" fill="#E9E9E9" stroke="#E9E9E9"/>
<ellipse cx="6.64572" cy="6.64572" rx="6.64572" ry="6.64572" transform="matrix(-1 0 0 1 153.661 129.987)" fill="white"/>
<ellipse cx="6.64572" cy="6.64572" rx="6.64572" ry="6.64572" transform="matrix(-1 0 0 1 153.661 129.987)" fill="#133E79"/>
<ellipse cx="6.64572" cy="6.64572" rx="6.64572" ry="6.64572" transform="matrix(-1 0 0 1 132.769 129.987)" fill="#133E79"/>
<ellipse cx="6.64572" cy="6.64572" rx="6.64572" ry="6.64572" transform="matrix(-1 0 0 1 113.788 129.987)" fill="#133E79"/>
<path d="M183.307 180.979C183.307 180.633 183.077 180.446 182.924 180.154C182.758 179.839 182.49 179.61 182.299 179.323C182.203 179.18 182.052 178.846 181.916 178.752C181.771 178.651 181.578 178.609 181.439 178.516C180.941 178.184 180.564 177.591 180.201 177.131C179.859 176.697 179.731 176.161 179.488 175.675" stroke="#133E79" stroke-width="3" stroke-linecap="round"/>
<path d="M183.732 181.245C183.492 181.179 183.191 181.071 182.989 180.926C182.781 180.777 182.849 180.585 182.671 180.396C182.532 180.249 182.5 180.019 182.273 179.969C182.041 179.917 181.835 179.449 181.716 179.27C181.622 179.13 181.38 178.854 181.233 178.781C181.018 178.673 180.753 178.577 180.602 178.369C180.095 177.664 179.252 177.348 178.64 176.736" stroke="#133E79" stroke-width="3" stroke-linecap="round"/>
<path d="M177.154 178.307L182 182.076L194.923 194.999" stroke="#E9E9E9"/>
<path d="M176.968 176.283C177.172 176.35 177.362 176.364 177.559 176.445C177.708 176.506 177.863 176.558 178.015 176.612C178.063 176.629 178.329 176.761 178.287 176.761C178.178 176.761 178.059 176.77 177.951 176.788C177.884 176.799 178.11 176.875 178.131 176.887C178.212 176.935 178.215 176.912 178.111 176.912C178.07 176.912 177.987 176.897 177.949 176.918C177.882 176.956 178.067 177.008 178.089 177.012C178.3 177.05 177.877 177.015 177.84 177.04C177.82 177.053 178.371 177.139 178.088 177.139C177.978 177.139 177.661 177.168 177.759 177.119C177.837 177.08 178.059 177.088 178.15 177.088C178.212 177.088 178.273 177.088 178.335 177.088C178.395 177.088 178.212 177.074 178.156 177.094C178.092 177.117 178.068 177.139 177.987 177.139C177.963 177.139 177.854 177.139 177.879 177.139C177.996 177.139 178.113 177.129 178.226 177.158C178.356 177.192 177.958 177.164 177.823 177.164C177.623 177.164 177.941 177.156 177.999 177.17C178.13 177.2 178.268 177.239 178.402 177.239" stroke="#133E79" stroke-linecap="round"/>
</svg>
